# xmcd
#
# Track frame offsets:
#	150
#	16769
#	62926
#	98170
#
# Disc length: 1895 seconds
#
# Revision: 1
# Processed by: cddbd v1.5.2PL0 Copyright (c) Steve Scherf et al.
# Submitted via: audiograbber 1.83.01
#
DISCID=29076504
DTITLE=Frankie Goes To Hollywood - Relax (Remixed)
DYEAR=2001
DGENRE=House
TTITLE0=Relax (Doomsday Radio Mix)
TTITLE1=Relax (Doomsday Club Mix)
TTITLE2=Relax (Marc Et Claude's Respect Remix)
TTITLE3=Relax (Doomsday Club Dub Mix)
EXTD=
EXTT0=
EXTT1=
EXTT2=
EXTT3=
PLAYORDER=
